<svg xmlns="http://www.w3.org/2000/svg" version="1.1" xmlns:xlink="http://www.w3.org/1999/xlink" xmlns:svgjs="http://svgjs.com/svgjs" width="1200" height="500" preserveAspectRatio="none" viewBox="0 0 1200 500">
    <g mask="url(&quot;#SvgjsMask1262&quot;)" fill="none">
        <rect width="1200" height="500" x="0" y="0" fill="rgba(0, 0, 0, 1)"></rect>
        <path d="M-76.65 374.15L-76.65 374.15" stroke="rgba(47, 47, 47, 1)" stroke-width="1.5"></path>
        <path d="M-76.65 374.15L-73.29 511.46" stroke="rgba(47, 47, 47, 1)" stroke-width="1.5"></path>
        <path d="M-76.65 374.15L86.29 397.49" stroke="rgba(47, 47, 47, 1)" stroke-width="1.5"></path>
        <path d="M-76.65 374.15L43.17 561.42" stroke="rgba(47, 47, 47, 1)" stroke-width="1.5"></path>
        <path d="M-76.65 374.15L238.31 348.36" stroke="rgba(47, 47, 47, 1)" stroke-width="1.5"></path>
        <path d="M-73.29 511.46L-73.29 511.46" stroke="rgba(47, 47, 47, 1)" stroke-width="1.5"></path>
        <path d="M-73.29 511.46L43.17 561.42" stroke="rgba(47, 47, 47, 1)" stroke-width="1.5"></path>
        <path d="M-103.26 695.56L-103.26 695.56" stroke="rgba(47, 47, 47, 1)" stroke-width="1.5"></path>
        <path d="M-103.26 695.56L-73.29 511.46" stroke="rgba(47, 47, 47, 1)" stroke-width="1.5"></path>
        <path d="M-103.26 695.56L43.17 561.42" stroke="rgba(47, 47, 47, 1)" stroke-width="1.5"></path>
        <path d="M-103.26 695.56L-76.65 374.15" stroke="rgba(47, 47, 47, 1)" stroke-width="1.5"></path>
        <path d="M-103.26 695.56L236.45 641.65" stroke="rgba(47, 47, 47, 1)" stroke-width="1.5"></path>
        <path d="M86.29 397.49L86.29 397.49" stroke="rgba(47, 47, 47, 1)" stroke-width="1.5"></path>
        <path d="M86.29 397.49L238.31 348.36" stroke="rgba(47, 47, 47, 1)" stroke-width="1.5"></path>
        <path d="M86.29 397.49L43.17 561.42" stroke="rgba(47, 47, 47, 1)" stroke-width="1.5"></path>
        <path d="M86.29 397.49L238.16 507.15" stroke="rgba(47, 47, 47, 1)" stroke-width="1.5"></path>
        <path d="M86.29 397.49L-73.29 511.46" stroke="rgba(47, 47, 47, 1)" stroke-width="1.5"></path>
        <path d="M43.17 561.42L43.17 561.42" stroke="rgba(47, 47, 47, 1)" stroke-width="1.5"></path>
        <path d="M238.31 348.36L238.31 348.36" stroke="rgba(47, 47, 47, 1)" stroke-width="1.5"></path>
        <path d="M238.31 348.36L349.64 396.05" stroke="rgba(47, 47, 47, 1)" stroke-width="1.5"></path>
        <path d="M238.31 348.36L238.16 507.15" stroke="rgba(47, 47, 47, 1)" stroke-width="1.5"></path>
        <path d="M238.16 507.15L238.16 507.15" stroke="rgba(47, 47, 47, 1)" stroke-width="1.5"></path>
        <path d="M238.16 507.15L356.89 504.98" stroke="rgba(47, 47, 47, 1)" stroke-width="1.5"></path>
        <path d="M238.16 507.15L236.45 641.65" stroke="rgba(47, 47, 47, 1)" stroke-width="1.5"></path>
        <path d="M238.16 507.15L349.64 396.05" stroke="rgba(47, 47, 47, 1)" stroke-width="1.5"></path>
        <path d="M236.45 641.65L236.45 641.65" stroke="rgba(47, 47, 47, 1)" stroke-width="1.5"></path>
        <path d="M236.45 641.65L401.23 654.42" stroke="rgba(47, 47, 47, 1)" stroke-width="1.5"></path>
        <path d="M236.45 641.65L356.89 504.98" stroke="rgba(47, 47, 47, 1)" stroke-width="1.5"></path>
        <path d="M349.64 396.05L349.64 396.05" stroke="rgba(47, 47, 47, 1)" stroke-width="1.5"></path>
        <path d="M349.64 396.05L356.89 504.98" stroke="rgba(47, 47, 47, 1)" stroke-width="1.5"></path>
        <path d="M349.64 396.05L547.52 366.37" stroke="rgba(47, 47, 47, 1)" stroke-width="1.5"></path>
        <path d="M349.64 396.05L555.84 549.91" stroke="rgba(47, 47, 47, 1)" stroke-width="1.5"></path>
        <path d="M349.64 396.05L552.98 234.89" stroke="rgba(47, 47, 47, 1)" stroke-width="1.5"></path>
        <path d="M356.89 504.98L356.89 504.98" stroke="rgba(47, 47, 47, 1)" stroke-width="1.5"></path>
        <path d="M356.89 504.98L401.23 654.42" stroke="rgba(47, 47, 47, 1)" stroke-width="1.5"></path>
        <path d="M401.23 654.42L401.23 654.42" stroke="rgba(47, 47, 47, 1)" stroke-width="1.5"></path>
        <path d="M401.23 654.42L555.73 681.17" stroke="rgba(47, 47, 47, 1)" stroke-width="1.5"></path>
        <path d="M401.23 654.42L555.84 549.91" stroke="rgba(47, 47, 47, 1)" stroke-width="1.5"></path>
        <path d="M552.98 234.89L552.98 234.89" stroke="rgba(47, 47, 47, 1)" stroke-width="1.5"></path>
        <path d="M552.98 234.89L547.52 366.37" stroke="rgba(47, 47, 47, 1)" stroke-width="1.5"></path>
        <path d="M552.98 234.89L689.39 221.24" stroke="rgba(47, 47, 47, 1)" stroke-width="1.5"></path>
        <path d="M552.98 234.89L788.11 229.56" stroke="rgba(47, 47, 47, 1)" stroke-width="1.5"></path>
        <path d="M552.98 234.89L667.99 521.96" stroke="rgba(47, 47, 47, 1)" stroke-width="1.5"></path>
        <path d="M547.52 366.37L547.52 366.37" stroke="rgba(47, 47, 47, 1)" stroke-width="1.5"></path>
        <path d="M547.52 366.37L555.84 549.91" stroke="rgba(47, 47, 47, 1)" stroke-width="1.5"></path>
        <path d="M547.52 366.37L667.99 521.96" stroke="rgba(47, 47, 47, 1)" stroke-width="1.5"></path>
        <path d="M555.84 549.91L555.84 549.91" stroke="rgba(47, 47, 47, 1)" stroke-width="1.5"></path>
        <path d="M555.84 549.91L667.99 521.96" stroke="rgba(47, 47, 47, 1)" stroke-width="1.5"></path>
        <path d="M555.84 549.91L555.73 681.17" stroke="rgba(47, 47, 47, 1)" stroke-width="1.5"></path>
        <path d="M555.84 549.91L696.51 659.2" stroke="rgba(47, 47, 47, 1)" stroke-width="1.5"></path>
        <path d="M555.73 681.17L555.73 681.17" stroke="rgba(47, 47, 47, 1)" stroke-width="1.5"></path>
        <path d="M555.73 681.17L696.51 659.2" stroke="rgba(47, 47, 47, 1)" stroke-width="1.5"></path>
        <path d="M555.73 681.17L667.99 521.96" stroke="rgba(47, 47, 47, 1)" stroke-width="1.5"></path>
        <path d="M555.73 681.17L809.97 687.32" stroke="rgba(47, 47, 47, 1)" stroke-width="1.5"></path>
        <path d="M555.73 681.17L356.89 504.98" stroke="rgba(47, 47, 47, 1)" stroke-width="1.5"></path>
        <path d="M689.39 221.24L689.39 221.24" stroke="rgba(47, 47, 47, 1)" stroke-width="1.5"></path>
        <path d="M689.39 221.24L788.11 229.56" stroke="rgba(47, 47, 47, 1)" stroke-width="1.5"></path>
        <path d="M667.99 521.96L667.99 521.96" stroke="rgba(47, 47, 47, 1)" stroke-width="1.5"></path>
        <path d="M667.99 521.96L798.43 534.66" stroke="rgba(47, 47, 47, 1)" stroke-width="1.5"></path>
        <path d="M667.99 521.96L696.51 659.2" stroke="rgba(47, 47, 47, 1)" stroke-width="1.5"></path>
        <path d="M667.99 521.96L809.97 687.32" stroke="rgba(47, 47, 47, 1)" stroke-width="1.5"></path>
        <path d="M696.51 659.2L696.51 659.2" stroke="rgba(47, 47, 47, 1)" stroke-width="1.5"></path>
        <path d="M696.51 659.2L809.97 687.32" stroke="rgba(47, 47, 47, 1)" stroke-width="1.5"></path>
        <path d="M696.51 659.2L798.43 534.66" stroke="rgba(47, 47, 47, 1)" stroke-width="1.5"></path>
        <path d="M696.51 659.2L970.18 653.01" stroke="rgba(47, 47, 47, 1)" stroke-width="1.5"></path>
        <path d="M834.17 -41.53L834.17 -41.53" stroke="rgba(47, 47, 47, 1)" stroke-width="1.5"></path>
        <path d="M834.17 -41.53L826.32 47.92" stroke="rgba(47, 47, 47, 1)" stroke-width="1.5"></path>
        <path d="M834.17 -41.53L1011.84 -69.61" stroke="rgba(47, 47, 47, 1)" stroke-width="1.5"></path>
        <path d="M826.32 47.92L826.32 47.92" stroke="rgba(47, 47, 47, 1)" stroke-width="1.5"></path>
        <path d="M826.32 47.92L993.39 85.16" stroke="rgba(47, 47, 47, 1)" stroke-width="1.5"></path>
        <path d="M826.32 47.92L788.11 229.56" stroke="rgba(47, 47, 47, 1)" stroke-width="1.5"></path>
        <path d="M826.32 47.92L960.67 217.59" stroke="rgba(47, 47, 47, 1)" stroke-width="1.5"></path>
        <path d="M788.11 229.56L788.11 229.56" stroke="rgba(47, 47, 47, 1)" stroke-width="1.5"></path>
        <path d="M788.11 229.56L860.77 346.95" stroke="rgba(47, 47, 47, 1)" stroke-width="1.5"></path>
        <path d="M788.11 229.56L960.67 217.59" stroke="rgba(47, 47, 47, 1)" stroke-width="1.5"></path>
        <path d="M860.77 346.95L860.77 346.95" stroke="rgba(47, 47, 47, 1)" stroke-width="1.5"></path>
        <path d="M860.77 346.95L960.67 217.59" stroke="rgba(47, 47, 47, 1)" stroke-width="1.5"></path>
        <path d="M798.43 534.66L798.43 534.66" stroke="rgba(47, 47, 47, 1)" stroke-width="1.5"></path>
        <path d="M798.43 534.66L809.97 687.32" stroke="rgba(47, 47, 47, 1)" stroke-width="1.5"></path>
        <path d="M809.97 687.32L809.97 687.32" stroke="rgba(47, 47, 47, 1)" stroke-width="1.5"></path>
        <path d="M809.97 687.32L970.18 653.01" stroke="rgba(47, 47, 47, 1)" stroke-width="1.5"></path>
        <path d="M809.97 687.32L990.68 494.68" stroke="rgba(47, 47, 47, 1)" stroke-width="1.5"></path>
        <path d="M1011.84 -69.61L1011.84 -69.61" stroke="rgba(47, 47, 47, 1)" stroke-width="1.5"></path>
        <path d="M1011.84 -69.61L1127.04 -79.68" stroke="rgba(47, 47, 47, 1)" stroke-width="1.5"></path>
        <path d="M1011.84 -69.61L1095.79 44.99" stroke="rgba(47, 47, 47, 1)" stroke-width="1.5"></path>
        <path d="M1011.84 -69.61L993.39 85.16" stroke="rgba(47, 47, 47, 1)" stroke-width="1.5"></path>
        <path d="M993.39 85.16L993.39 85.16" stroke="rgba(47, 47, 47, 1)" stroke-width="1.5"></path>
        <path d="M993.39 85.16L1095.79 44.99" stroke="rgba(47, 47, 47, 1)" stroke-width="1.5"></path>
        <path d="M993.39 85.16L960.67 217.59" stroke="rgba(47, 47, 47, 1)" stroke-width="1.5"></path>
        <path d="M960.67 217.59L960.67 217.59" stroke="rgba(47, 47, 47, 1)" stroke-width="1.5"></path>
        <path d="M960.67 217.59L1091.55 216.53" stroke="rgba(47, 47, 47, 1)" stroke-width="1.5"></path>
        <path d="M990.68 494.68L990.68 494.68" stroke="rgba(47, 47, 47, 1)" stroke-width="1.5"></path>
        <path d="M990.68 494.68L1088.11 493.4" stroke="rgba(47, 47, 47, 1)" stroke-width="1.5"></path>
        <path d="M990.68 494.68L970.18 653.01" stroke="rgba(47, 47, 47, 1)" stroke-width="1.5"></path>
        <path d="M970.18 653.01L970.18 653.01" stroke="rgba(47, 47, 47, 1)" stroke-width="1.5"></path>
        <path d="M970.18 653.01L1149.7 679.17" stroke="rgba(47, 47, 47, 1)" stroke-width="1.5"></path>
        <path d="M970.18 653.01L1088.11 493.4" stroke="rgba(47, 47, 47, 1)" stroke-width="1.5"></path>
        <path d="M970.18 653.01L798.43 534.66" stroke="rgba(47, 47, 47, 1)" stroke-width="1.5"></path>
        <path d="M1127.04 -79.68L1127.04 -79.68" stroke="rgba(47, 47, 47, 1)" stroke-width="1.5"></path>
        <path d="M1127.04 -79.68L1095.79 44.99" stroke="rgba(47, 47, 47, 1)" stroke-width="1.5"></path>
        <path d="M1127.04 -79.68L1299.4 -58.27" stroke="rgba(47, 47, 47, 1)" stroke-width="1.5"></path>
        <path d="M1127.04 -79.68L1247.98 46.19" stroke="rgba(47, 47, 47, 1)" stroke-width="1.5"></path>
        <path d="M1127.04 -79.68L993.39 85.16" stroke="rgba(47, 47, 47, 1)" stroke-width="1.5"></path>
        <path d="M1095.79 44.99L1095.79 44.99" stroke="rgba(47, 47, 47, 1)" stroke-width="1.5"></path>
        <path d="M1095.79 44.99L1247.98 46.19" stroke="rgba(47, 47, 47, 1)" stroke-width="1.5"></path>
        <path d="M1095.79 44.99L1091.55 216.53" stroke="rgba(47, 47, 47, 1)" stroke-width="1.5"></path>
        <path d="M1095.79 44.99L960.67 217.59" stroke="rgba(47, 47, 47, 1)" stroke-width="1.5"></path>
        <path d="M1091.55 216.53L1091.55 216.53" stroke="rgba(47, 47, 47, 1)" stroke-width="1.5"></path>
        <path d="M1091.55 216.53L993.39 85.16" stroke="rgba(47, 47, 47, 1)" stroke-width="1.5"></path>
        <path d="M1091.55 216.53L1244.56 347.95" stroke="rgba(47, 47, 47, 1)" stroke-width="1.5"></path>
        <path d="M1088.11 493.4L1088.11 493.4" stroke="rgba(47, 47, 47, 1)" stroke-width="1.5"></path>
        <path d="M1088.11 493.4L1149.7 679.17" stroke="rgba(47, 47, 47, 1)" stroke-width="1.5"></path>
        <path d="M1088.11 493.4L1296.11 521.23" stroke="rgba(47, 47, 47, 1)" stroke-width="1.5"></path>
        <path d="M1149.7 679.17L1149.7 679.17" stroke="rgba(47, 47, 47, 1)" stroke-width="1.5"></path>
        <path d="M1149.7 679.17L1312.21 706.87" stroke="rgba(47, 47, 47, 1)" stroke-width="1.5"></path>
        <path d="M1149.7 679.17L1296.11 521.23" stroke="rgba(47, 47, 47, 1)" stroke-width="1.5"></path>
        <path d="M1149.7 679.17L990.68 494.68" stroke="rgba(47, 47, 47, 1)" stroke-width="1.5"></path>
        <path d="M1299.4 -58.27L1299.4 -58.27" stroke="rgba(47, 47, 47, 1)" stroke-width="1.5"></path>
        <path d="M1299.4 -58.27L1247.98 46.19" stroke="rgba(47, 47, 47, 1)" stroke-width="1.5"></path>
        <path d="M1299.4 -58.27L1095.79 44.99" stroke="rgba(47, 47, 47, 1)" stroke-width="1.5"></path>
        <path d="M1247.98 46.19L1247.98 46.19" stroke="rgba(47, 47, 47, 1)" stroke-width="1.5"></path>
        <path d="M1247.98 46.19L1293.56 198.81" stroke="rgba(47, 47, 47, 1)" stroke-width="1.5"></path>
        <path d="M1293.56 198.81L1293.56 198.81" stroke="rgba(47, 47, 47, 1)" stroke-width="1.5"></path>
        <path d="M1293.56 198.81L1244.56 347.95" stroke="rgba(47, 47, 47, 1)" stroke-width="1.5"></path>
        <path d="M1293.56 198.81L1091.55 216.53" stroke="rgba(47, 47, 47, 1)" stroke-width="1.5"></path>
        <path d="M1293.56 198.81L1095.79 44.99" stroke="rgba(47, 47, 47, 1)" stroke-width="1.5"></path>
        <path d="M1293.56 198.81L1299.4 -58.27" stroke="rgba(47, 47, 47, 1)" stroke-width="1.5"></path>
        <path d="M1293.56 198.81L993.39 85.16" stroke="rgba(47, 47, 47, 1)" stroke-width="1.5"></path>
        <path d="M1244.56 347.95L1244.56 347.95" stroke="rgba(47, 47, 47, 1)" stroke-width="1.5"></path>
        <path d="M1244.56 347.95L1296.11 521.23" stroke="rgba(47, 47, 47, 1)" stroke-width="1.5"></path>
        <path d="M1244.56 347.95L1088.11 493.4" stroke="rgba(47, 47, 47, 1)" stroke-width="1.5"></path>
        <path d="M1244.56 347.95L990.68 494.68" stroke="rgba(47, 47, 47, 1)" stroke-width="1.5"></path>
        <path d="M1244.56 347.95L1247.98 46.19" stroke="rgba(47, 47, 47, 1)" stroke-width="1.5"></path>
        <path d="M1296.11 521.23L1296.11 521.23" stroke="rgba(47, 47, 47, 1)" stroke-width="1.5"></path>
        <path d="M1296.11 521.23L1312.21 706.87" stroke="rgba(47, 47, 47, 1)" stroke-width="1.5"></path>
        <path d="M1296.11 521.23L990.68 494.68" stroke="rgba(47, 47, 47, 1)" stroke-width="1.5"></path>
        <path d="M1312.21 706.87L1312.21 706.87" stroke="rgba(47, 47, 47, 1)" stroke-width="1.5"></path>
        <circle r="5" cx="-76.65" cy="374.15" fill="rgba(47, 47, 47, 1)"></circle>
        <circle r="5" cx="-73.29" cy="511.46" fill="rgba(47, 47, 47, 1)"></circle>
        <circle r="5" cx="-103.26" cy="695.56" fill="rgba(47, 47, 47, 1)"></circle>
        <circle r="5" cx="86.29" cy="397.49" fill="rgba(47, 47, 47, 1)"></circle>
        <circle r="5" cx="43.17" cy="561.42" fill="rgba(47, 47, 47, 1)"></circle>
        <circle r="5" cx="238.31" cy="348.36" fill="rgba(47, 47, 47, 1)"></circle>
        <circle r="5" cx="238.16" cy="507.15" fill="rgba(47, 47, 47, 1)"></circle>
        <circle r="5" cx="236.45" cy="641.65" fill="rgba(47, 47, 47, 1)"></circle>
        <circle r="5" cx="349.64" cy="396.05" fill="rgba(47, 47, 47, 1)"></circle>
        <circle r="5" cx="356.89" cy="504.98" fill="rgba(47, 47, 47, 1)"></circle>
        <circle r="5" cx="401.23" cy="654.42" fill="rgba(47, 47, 47, 1)"></circle>
        <circle r="5" cx="552.98" cy="234.89" fill="rgba(47, 47, 47, 1)"></circle>
        <circle r="5" cx="547.52" cy="366.37" fill="rgba(47, 47, 47, 1)"></circle>
        <circle r="5" cx="555.84" cy="549.91" fill="rgba(47, 47, 47, 1)"></circle>
        <circle r="5" cx="555.73" cy="681.17" fill="rgba(47, 47, 47, 1)"></circle>
        <circle r="5" cx="689.39" cy="221.24" fill="rgba(47, 47, 47, 1)"></circle>
        <circle r="5" cx="667.99" cy="521.96" fill="rgba(47, 47, 47, 1)"></circle>
        <circle r="5" cx="696.51" cy="659.2" fill="rgba(47, 47, 47, 1)"></circle>
        <circle r="5" cx="834.17" cy="-41.53" fill="rgba(47, 47, 47, 1)"></circle>
        <circle r="5" cx="826.32" cy="47.92" fill="rgba(47, 47, 47, 1)"></circle>
        <circle r="5" cx="788.11" cy="229.56" fill="rgba(47, 47, 47, 1)"></circle>
        <circle r="5" cx="860.77" cy="346.95" fill="rgba(47, 47, 47, 1)"></circle>
        <circle r="5" cx="798.43" cy="534.66" fill="rgba(47, 47, 47, 1)"></circle>
        <circle r="5" cx="809.97" cy="687.32" fill="rgba(47, 47, 47, 1)"></circle>
        <circle r="5" cx="1011.84" cy="-69.61" fill="rgba(47, 47, 47, 1)"></circle>
        <circle r="5" cx="993.39" cy="85.16" fill="rgba(47, 47, 47, 1)"></circle>
        <circle r="5" cx="960.67" cy="217.59" fill="rgba(47, 47, 47, 1)"></circle>
        <circle r="5" cx="990.68" cy="494.68" fill="rgba(47, 47, 47, 1)"></circle>
        <circle r="5" cx="970.18" cy="653.01" fill="rgba(47, 47, 47, 1)"></circle>
        <circle r="5" cx="1127.04" cy="-79.68" fill="rgba(47, 47, 47, 1)"></circle>
        <circle r="5" cx="1095.79" cy="44.99" fill="rgba(47, 47, 47, 1)"></circle>
        <circle r="5" cx="1091.55" cy="216.53" fill="rgba(47, 47, 47, 1)"></circle>
        <circle r="5" cx="1088.11" cy="493.4" fill="rgba(47, 47, 47, 1)"></circle>
        <circle r="5" cx="1149.7" cy="679.17" fill="rgba(47, 47, 47, 1)"></circle>
        <circle r="5" cx="1299.4" cy="-58.27" fill="rgba(47, 47, 47, 1)"></circle>
        <circle r="5" cx="1247.98" cy="46.19" fill="rgba(47, 47, 47, 1)"></circle>
        <circle r="5" cx="1293.56" cy="198.81" fill="rgba(47, 47, 47, 1)"></circle>
        <circle r="5" cx="1244.56" cy="347.95" fill="rgba(47, 47, 47, 1)"></circle>
        <circle r="5" cx="1296.11" cy="521.23" fill="rgba(47, 47, 47, 1)"></circle>
        <circle r="5" cx="1312.21" cy="706.87" fill="rgba(47, 47, 47, 1)"></circle>
        <path d="M47.56 531.95L47.56 531.95" stroke="hsl(0, 0%, 54.5%)" stroke-width="1.5"></path>
        <path d="M47.56 531.95L68.97 639.9" stroke="hsl(0, 0%, 54.5%)" stroke-width="1.5"></path>
        <path d="M47.56 531.95L-92.05 524.97" stroke="hsl(0, 0%, 54.5%)" stroke-width="1.5"></path>
        <path d="M47.56 531.95L202.44 505.08" stroke="hsl(0, 0%, 54.5%)" stroke-width="1.5"></path>
        <path d="M47.56 531.95L-85.64 405.91" stroke="hsl(0, 0%, 54.5%)" stroke-width="1.5"></path>
        <path d="M47.56 531.95L-50.14 709.33" stroke="hsl(0, 0%, 54.5%)" stroke-width="1.5"></path>
        <path d="M47.56 531.95L236.33 690.49" stroke="hsl(0, 0%, 54.5%)" stroke-width="1.5"></path>
        <path d="M202.44 505.08L202.44 505.08" stroke="hsl(0, 0%, 54.5%)" stroke-width="1.5"></path>
        <path d="M202.44 505.08L337.64 536.11" stroke="hsl(0, 0%, 54.5%)" stroke-width="1.5"></path>
        <path d="M202.44 505.08L236.33 690.49" stroke="hsl(0, 0%, 54.5%)" stroke-width="1.5"></path>
        <path d="M202.44 505.08L68.97 639.9" stroke="hsl(0, 0%, 54.5%)" stroke-width="1.5"></path>
        <path d="M202.44 505.08L374.14 370.57" stroke="hsl(0, 0%, 54.5%)" stroke-width="1.5"></path>
        <path d="M202.44 505.08L374.38 700.86" stroke="hsl(0, 0%, 54.5%)" stroke-width="1.5"></path>
        <path d="M702.87 342.35L702.87 342.35" stroke="hsl(0, 0%, 54.5%)" stroke-width="1.5"></path>
        <path d="M702.87 342.35L821.96 356.96" stroke="hsl(0, 0%, 54.5%)" stroke-width="1.5"></path>
        <path d="M702.87 342.35L700.69 502.75" stroke="hsl(0, 0%, 54.5%)" stroke-width="1.5"></path>
        <path d="M702.87 342.35L818.35 505.07" stroke="hsl(0, 0%, 54.5%)" stroke-width="1.5"></path>
        <path d="M702.87 342.35L547.96 490.29" stroke="hsl(0, 0%, 54.5%)" stroke-width="1.5"></path>
        <path d="M702.87 342.35L860.21 192.68" stroke="hsl(0, 0%, 54.5%)" stroke-width="1.5"></path>
        <path d="M700.69 502.75L700.69 502.75" stroke="hsl(0, 0%, 54.5%)" stroke-width="1.5"></path>
        <path d="M700.69 502.75L818.35 505.07" stroke="hsl(0, 0%, 54.5%)" stroke-width="1.5"></path>
        <path d="M700.69 502.75L710.34 652.57" stroke="hsl(0, 0%, 54.5%)" stroke-width="1.5"></path>
        <path d="M860.21 192.68L860.21 192.68" stroke="hsl(0, 0%, 54.5%)" stroke-width="1.5"></path>
        <path d="M860.21 192.68L995.5 252.7" stroke="hsl(0, 0%, 54.5%)" stroke-width="1.5"></path>
        <path d="M860.21 192.68L821.96 356.96" stroke="hsl(0, 0%, 54.5%)" stroke-width="1.5"></path>
        <path d="M860.21 192.68L1006.14 67.09" stroke="hsl(0, 0%, 54.5%)" stroke-width="1.5"></path>
        <path d="M818.35 505.07L818.35 505.07" stroke="hsl(0, 0%, 54.5%)" stroke-width="1.5"></path>
        <path d="M818.35 505.07L821.96 356.96" stroke="hsl(0, 0%, 54.5%)" stroke-width="1.5"></path>
        <path d="M818.35 505.07L851.14 663.57" stroke="hsl(0, 0%, 54.5%)" stroke-width="1.5"></path>
        <path d="M818.35 505.07L710.34 652.57" stroke="hsl(0, 0%, 54.5%)" stroke-width="1.5"></path>
        <path d="M818.35 505.07L945.32 646.19" stroke="hsl(0, 0%, 54.5%)" stroke-width="1.5"></path>
        <path d="M818.35 505.07L991.11 406.64" stroke="hsl(0, 0%, 54.5%)" stroke-width="1.5"></path>
        <path d="M1297.23 665.88L1297.23 665.88" stroke="hsl(0, 0%, 54.5%)" stroke-width="1.5"></path>
        <path d="M1297.23 665.88L1256.96 541.2" stroke="hsl(0, 0%, 54.5%)" stroke-width="1.5"></path>
        <path d="M1297.23 665.88L1160 648.73" stroke="hsl(0, 0%, 54.5%)" stroke-width="1.5"></path>
        <path d="M1297.23 665.88L1111.92 494.32" stroke="hsl(0, 0%, 54.5%)" stroke-width="1.5"></path>
        <path d="M1297.23 665.88L1304.86 403.68" stroke="hsl(0, 0%, 54.5%)" stroke-width="1.5"></path>
        <path d="M1297.23 665.88L945.32 646.19" stroke="hsl(0, 0%, 54.5%)" stroke-width="1.5"></path>
        <path d="M1297.23 665.88L1117.48 346.54" stroke="hsl(0, 0%, 54.5%)" stroke-width="1.5"></path>
        <path d="M-85.64 405.91L-85.64 405.91" stroke="hsl(0, 0%, 54.5%)" stroke-width="1.5"></path>
        <path d="M-85.64 405.91L-92.05 524.97" stroke="hsl(0, 0%, 54.5%)" stroke-width="1.5"></path>
        <path d="M-85.64 405.91L68.97 639.9" stroke="hsl(0, 0%, 54.5%)" stroke-width="1.5"></path>
        <path d="M-85.64 405.91L202.44 505.08" stroke="hsl(0, 0%, 54.5%)" stroke-width="1.5"></path>
        <path d="M-92.05 524.97L-92.05 524.97" stroke="hsl(0, 0%, 54.5%)" stroke-width="1.5"></path>
        <path d="M-92.05 524.97L-50.14 709.33" stroke="hsl(0, 0%, 54.5%)" stroke-width="1.5"></path>
        <path d="M-92.05 524.97L68.97 639.9" stroke="hsl(0, 0%, 54.5%)" stroke-width="1.5"></path>
        <path d="M-92.05 524.97L202.44 505.08" stroke="hsl(0, 0%, 54.5%)" stroke-width="1.5"></path>
        <path d="M-50.14 709.33L-50.14 709.33" stroke="hsl(0, 0%, 54.5%)" stroke-width="1.5"></path>
        <path d="M-50.14 709.33L68.97 639.9" stroke="hsl(0, 0%, 54.5%)" stroke-width="1.5"></path>
        <path d="M68.97 639.9L68.97 639.9" stroke="hsl(0, 0%, 54.5%)" stroke-width="1.5"></path>
        <path d="M68.97 639.9L236.33 690.49" stroke="hsl(0, 0%, 54.5%)" stroke-width="1.5"></path>
        <path d="M236.33 690.49L236.33 690.49" stroke="hsl(0, 0%, 54.5%)" stroke-width="1.5"></path>
        <path d="M236.33 690.49L374.38 700.86" stroke="hsl(0, 0%, 54.5%)" stroke-width="1.5"></path>
        <path d="M236.33 690.49L337.64 536.11" stroke="hsl(0, 0%, 54.5%)" stroke-width="1.5"></path>
        <path d="M236.33 690.49L508.29 665.67" stroke="hsl(0, 0%, 54.5%)" stroke-width="1.5"></path>
        <path d="M374.14 370.57L374.14 370.57" stroke="hsl(0, 0%, 54.5%)" stroke-width="1.5"></path>
        <path d="M374.14 370.57L337.64 536.11" stroke="hsl(0, 0%, 54.5%)" stroke-width="1.5"></path>
        <path d="M374.14 370.57L547.96 490.29" stroke="hsl(0, 0%, 54.5%)" stroke-width="1.5"></path>
        <path d="M374.14 370.57L508.29 665.67" stroke="hsl(0, 0%, 54.5%)" stroke-width="1.5"></path>
        <path d="M374.14 370.57L702.87 342.35" stroke="hsl(0, 0%, 54.5%)" stroke-width="1.5"></path>
        <path d="M337.64 536.11L337.64 536.11" stroke="hsl(0, 0%, 54.5%)" stroke-width="1.5"></path>
        <path d="M337.64 536.11L374.38 700.86" stroke="hsl(0, 0%, 54.5%)" stroke-width="1.5"></path>
        <path d="M374.38 700.86L374.38 700.86" stroke="hsl(0, 0%, 54.5%)" stroke-width="1.5"></path>
        <path d="M374.38 700.86L508.29 665.67" stroke="hsl(0, 0%, 54.5%)" stroke-width="1.5"></path>
        <path d="M374.38 700.86L547.96 490.29" stroke="hsl(0, 0%, 54.5%)" stroke-width="1.5"></path>
        <path d="M374.38 700.86L68.97 639.9" stroke="hsl(0, 0%, 54.5%)" stroke-width="1.5"></path>
        <path d="M547.96 490.29L547.96 490.29" stroke="hsl(0, 0%, 54.5%)" stroke-width="1.5"></path>
        <path d="M547.96 490.29L700.69 502.75" stroke="hsl(0, 0%, 54.5%)" stroke-width="1.5"></path>
        <path d="M547.96 490.29L508.29 665.67" stroke="hsl(0, 0%, 54.5%)" stroke-width="1.5"></path>
        <path d="M547.96 490.29L337.64 536.11" stroke="hsl(0, 0%, 54.5%)" stroke-width="1.5"></path>
        <path d="M508.29 665.67L508.29 665.67" stroke="hsl(0, 0%, 54.5%)" stroke-width="1.5"></path>
        <path d="M508.29 665.67L710.34 652.57" stroke="hsl(0, 0%, 54.5%)" stroke-width="1.5"></path>
        <path d="M710.34 652.57L710.34 652.57" stroke="hsl(0, 0%, 54.5%)" stroke-width="1.5"></path>
        <path d="M710.34 652.57L851.14 663.57" stroke="hsl(0, 0%, 54.5%)" stroke-width="1.5"></path>
        <path d="M821.96 356.96L821.96 356.96" stroke="hsl(0, 0%, 54.5%)" stroke-width="1.5"></path>
        <path d="M851.14 663.57L851.14 663.57" stroke="hsl(0, 0%, 54.5%)" stroke-width="1.5"></path>
        <path d="M851.14 663.57L945.32 646.19" stroke="hsl(0, 0%, 54.5%)" stroke-width="1.5"></path>
        <path d="M974.36 -87.98L974.36 -87.98" stroke="hsl(0, 0%, 54.5%)" stroke-width="1.5"></path>
        <path d="M974.36 -87.98L1098.4 -103.92" stroke="hsl(0, 0%, 54.5%)" stroke-width="1.5"></path>
        <path d="M974.36 -87.98L1006.14 67.09" stroke="hsl(0, 0%, 54.5%)" stroke-width="1.5"></path>
        <path d="M974.36 -87.98L1147.15 68.55" stroke="hsl(0, 0%, 54.5%)" stroke-width="1.5"></path>
        <path d="M974.36 -87.98L1270.7 -53.31" stroke="hsl(0, 0%, 54.5%)" stroke-width="1.5"></path>
        <path d="M974.36 -87.98L860.21 192.68" stroke="hsl(0, 0%, 54.5%)" stroke-width="1.5"></path>
        <path d="M974.36 -87.98L1246.15 89.68" stroke="hsl(0, 0%, 54.5%)" stroke-width="1.5"></path>
        <path d="M1006.14 67.09L1006.14 67.09" stroke="hsl(0, 0%, 54.5%)" stroke-width="1.5"></path>
        <path d="M1006.14 67.09L1147.15 68.55" stroke="hsl(0, 0%, 54.5%)" stroke-width="1.5"></path>
        <path d="M1006.14 67.09L995.5 252.7" stroke="hsl(0, 0%, 54.5%)" stroke-width="1.5"></path>
        <path d="M1006.14 67.09L1098.4 -103.92" stroke="hsl(0, 0%, 54.5%)" stroke-width="1.5"></path>
        <path d="M1006.14 67.09L1138.9 227.98" stroke="hsl(0, 0%, 54.5%)" stroke-width="1.5"></path>
        <path d="M995.5 252.7L995.5 252.7" stroke="hsl(0, 0%, 54.5%)" stroke-width="1.5"></path>
        <path d="M995.5 252.7L1138.9 227.98" stroke="hsl(0, 0%, 54.5%)" stroke-width="1.5"></path>
        <path d="M995.5 252.7L1117.48 346.54" stroke="hsl(0, 0%, 54.5%)" stroke-width="1.5"></path>
        <path d="M995.5 252.7L991.11 406.64" stroke="hsl(0, 0%, 54.5%)" stroke-width="1.5"></path>
        <path d="M991.11 406.64L991.11 406.64" stroke="hsl(0, 0%, 54.5%)" stroke-width="1.5"></path>
        <path d="M991.11 406.64L1117.48 346.54" stroke="hsl(0, 0%, 54.5%)" stroke-width="1.5"></path>
        <path d="M991.11 406.64L1111.92 494.32" stroke="hsl(0, 0%, 54.5%)" stroke-width="1.5"></path>
        <path d="M991.11 406.64L821.96 356.96" stroke="hsl(0, 0%, 54.5%)" stroke-width="1.5"></path>
        <path d="M945.32 646.19L945.32 646.19" stroke="hsl(0, 0%, 54.5%)" stroke-width="1.5"></path>
        <path d="M945.32 646.19L1160 648.73" stroke="hsl(0, 0%, 54.5%)" stroke-width="1.5"></path>
        <path d="M945.32 646.19L1111.92 494.32" stroke="hsl(0, 0%, 54.5%)" stroke-width="1.5"></path>
        <path d="M1098.4 -103.92L1098.4 -103.92" stroke="hsl(0, 0%, 54.5%)" stroke-width="1.5"></path>
        <path d="M1098.4 -103.92L1147.15 68.55" stroke="hsl(0, 0%, 54.5%)" stroke-width="1.5"></path>
        <path d="M1098.4 -103.92L1270.7 -53.31" stroke="hsl(0, 0%, 54.5%)" stroke-width="1.5"></path>
        <path d="M1098.4 -103.92L1246.15 89.68" stroke="hsl(0, 0%, 54.5%)" stroke-width="1.5"></path>
        <path d="M1147.15 68.55L1147.15 68.55" stroke="hsl(0, 0%, 54.5%)" stroke-width="1.5"></path>
        <path d="M1147.15 68.55L1246.15 89.68" stroke="hsl(0, 0%, 54.5%)" stroke-width="1.5"></path>
        <path d="M1138.9 227.98L1138.9 227.98" stroke="hsl(0, 0%, 54.5%)" stroke-width="1.5"></path>
        <path d="M1138.9 227.98L1117.48 346.54" stroke="hsl(0, 0%, 54.5%)" stroke-width="1.5"></path>
        <path d="M1138.9 227.98L1294.12 201.84" stroke="hsl(0, 0%, 54.5%)" stroke-width="1.5"></path>
        <path d="M1138.9 227.98L1147.15 68.55" stroke="hsl(0, 0%, 54.5%)" stroke-width="1.5"></path>
        <path d="M1138.9 227.98L1246.15 89.68" stroke="hsl(0, 0%, 54.5%)" stroke-width="1.5"></path>
        <path d="M1117.48 346.54L1117.48 346.54" stroke="hsl(0, 0%, 54.5%)" stroke-width="1.5"></path>
        <path d="M1117.48 346.54L1111.92 494.32" stroke="hsl(0, 0%, 54.5%)" stroke-width="1.5"></path>
        <path d="M1117.48 346.54L1304.86 403.68" stroke="hsl(0, 0%, 54.5%)" stroke-width="1.5"></path>
        <path d="M1111.92 494.32L1111.92 494.32" stroke="hsl(0, 0%, 54.5%)" stroke-width="1.5"></path>
        <path d="M1111.92 494.32L1256.96 541.2" stroke="hsl(0, 0%, 54.5%)" stroke-width="1.5"></path>
        <path d="M1160 648.73L1160 648.73" stroke="hsl(0, 0%, 54.5%)" stroke-width="1.5"></path>
        <path d="M1160 648.73L1256.96 541.2" stroke="hsl(0, 0%, 54.5%)" stroke-width="1.5"></path>
        <path d="M1160 648.73L1111.92 494.32" stroke="hsl(0, 0%, 54.5%)" stroke-width="1.5"></path>
        <path d="M1160 648.73L1304.86 403.68" stroke="hsl(0, 0%, 54.5%)" stroke-width="1.5"></path>
        <path d="M1160 648.73L991.11 406.64" stroke="hsl(0, 0%, 54.5%)" stroke-width="1.5"></path>
        <path d="M1270.7 -53.31L1270.7 -53.31" stroke="hsl(0, 0%, 54.5%)" stroke-width="1.5"></path>
        <path d="M1270.7 -53.31L1246.15 89.68" stroke="hsl(0, 0%, 54.5%)" stroke-width="1.5"></path>
        <path d="M1270.7 -53.31L1147.15 68.55" stroke="hsl(0, 0%, 54.5%)" stroke-width="1.5"></path>
        <path d="M1246.15 89.68L1246.15 89.68" stroke="hsl(0, 0%, 54.5%)" stroke-width="1.5"></path>
        <path d="M1246.15 89.68L1294.12 201.84" stroke="hsl(0, 0%, 54.5%)" stroke-width="1.5"></path>
        <path d="M1294.12 201.84L1294.12 201.84" stroke="hsl(0, 0%, 54.5%)" stroke-width="1.5"></path>
        <path d="M1294.12 201.84L1147.15 68.55" stroke="hsl(0, 0%, 54.5%)" stroke-width="1.5"></path>
        <path d="M1304.86 403.68L1304.86 403.68" stroke="hsl(0, 0%, 54.5%)" stroke-width="1.5"></path>
        <path d="M1304.86 403.68L1256.96 541.2" stroke="hsl(0, 0%, 54.5%)" stroke-width="1.5"></path>
        <path d="M1256.96 541.2L1256.96 541.2" stroke="hsl(0, 0%, 54.5%)" stroke-width="1.5"></path>
        <path d="M1256.96 541.2L1117.48 346.54" stroke="hsl(0, 0%, 54.5%)" stroke-width="1.5"></path>
        <circle r="25" cx="47.56" cy="531.95" fill="url(#SvgjsRadialGradient1263)"></circle>
        <circle r="25" cx="202.44" cy="505.08" fill="url(#SvgjsRadialGradient1263)"></circle>
        <circle r="25" cx="702.87" cy="342.35" fill="url(#SvgjsRadialGradient1263)"></circle>
        <circle r="25" cx="700.69" cy="502.75" fill="url(#SvgjsRadialGradient1263)"></circle>
        <circle r="25" cx="860.21" cy="192.68" fill="url(#SvgjsRadialGradient1263)"></circle>
        <circle r="25" cx="818.35" cy="505.07" fill="url(#SvgjsRadialGradient1263)"></circle>
        <circle r="25" cx="1297.23" cy="665.88" fill="url(#SvgjsRadialGradient1263)"></circle>
        <circle r="5" cx="-85.64" cy="405.91" fill="#b5b5b5"></circle>
        <circle r="5" cx="-92.05" cy="524.97" fill="#b5b5b5"></circle>
        <circle r="5" cx="-50.14" cy="709.33" fill="#b5b5b5"></circle>
        <circle r="5" cx="68.97" cy="639.9" fill="#b5b5b5"></circle>
        <circle r="5" cx="236.33" cy="690.49" fill="#b5b5b5"></circle>
        <circle r="5" cx="374.14" cy="370.57" fill="#b5b5b5"></circle>
        <circle r="5" cx="337.64" cy="536.11" fill="#b5b5b5"></circle>
        <circle r="5" cx="374.38" cy="700.86" fill="#b5b5b5"></circle>
        <circle r="5" cx="547.96" cy="490.29" fill="#b5b5b5"></circle>
        <circle r="5" cx="508.29" cy="665.67" fill="#b5b5b5"></circle>
        <circle r="5" cx="710.34" cy="652.57" fill="#b5b5b5"></circle>
        <circle r="5" cx="821.96" cy="356.96" fill="#b5b5b5"></circle>
        <circle r="5" cx="851.14" cy="663.57" fill="#b5b5b5"></circle>
        <circle r="5" cx="974.36" cy="-87.98" fill="#b5b5b5"></circle>
        <circle r="5" cx="1006.14" cy="67.09" fill="#b5b5b5"></circle>
        <circle r="5" cx="995.5" cy="252.7" fill="#b5b5b5"></circle>
        <circle r="5" cx="991.11" cy="406.64" fill="#b5b5b5"></circle>
        <circle r="5" cx="945.32" cy="646.19" fill="#b5b5b5"></circle>
        <circle r="5" cx="1098.4" cy="-103.92" fill="#b5b5b5"></circle>
        <circle r="5" cx="1147.15" cy="68.55" fill="#b5b5b5"></circle>
        <circle r="5" cx="1138.9" cy="227.98" fill="#b5b5b5"></circle>
        <circle r="5" cx="1117.48" cy="346.54" fill="#b5b5b5"></circle>
        <circle r="5" cx="1111.92" cy="494.32" fill="#b5b5b5"></circle>
        <circle r="5" cx="1160" cy="648.73" fill="#b5b5b5"></circle>
        <circle r="5" cx="1270.7" cy="-53.31" fill="#b5b5b5"></circle>
        <circle r="5" cx="1246.15" cy="89.68" fill="#b5b5b5"></circle>
        <circle r="5" cx="1294.12" cy="201.84" fill="#b5b5b5"></circle>
        <circle r="5" cx="1304.86" cy="403.68" fill="#b5b5b5"></circle>
        <circle r="5" cx="1256.96" cy="541.2" fill="#b5b5b5"></circle>
    </g>
    <defs>
        <mask id="SvgjsMask1262">
            <rect width="1200" height="500" fill="#ffffff"></rect>
        </mask>
        <radialGradient id="SvgjsRadialGradient1263">
            <stop stop-color="#ffffff" offset="0.1"></stop>
            <stop stop-color="rgba(107, 107, 107, 1)" offset="0.2"></stop>
            <stop stop-color="rgba(107, 107, 107, 0)" offset="1"></stop>
        </radialGradient>
    </defs>
</svg>